<?xml version="1.0" encoding="UTF-8" standalone="no"?>
<!-- Created with Inkscape (http://www.inkscape.org/) -->

<svg
   width="45.786095mm"
   height="3.7401545mm"
   viewBox="0 0 45.786095 3.7401545"
   version="1.1"
   id="svg1"
   xmlns="http://www.w3.org/2000/svg"
   xmlns:svg="http://www.w3.org/2000/svg">
  <defs
     id="defs1" />
  <g
     id="layer1"
     transform="translate(-191.69157,-40.800845)">
    <path
       style="fill:none;fill-opacity:0.997543;stroke:#000000;stroke-width:0.21223;stroke-dasharray:1.69784, 0.42446, 0.21223, 0.42446;stroke-dashoffset:0;stroke-opacity:0.803922"
       d="m 237.47768,40.953227 h -45.78611 v 0 0"
       id="path1-74-5-6-42-8-2" />
    <rect
       style="fill:none;fill-opacity:0.997727;stroke:#1a1a1a;stroke-width:0.4;stroke-dasharray:none;stroke-dashoffset:0;stroke-opacity:1"
       id="rect15-4"
       width="30.832191"
       height="3.3401542"
       x="198.68408"
       y="41.000847" />
    <path
       style="fill:none;fill-opacity:0.997543;stroke:#000000;stroke-width:0.21223;stroke-dasharray:1.69784, 0.42446, 0.21223, 0.42446;stroke-dashoffset:0;stroke-opacity:0.803922"
       d="m 237.47768,44.341 h -45.78611 v 0 0"
       id="path1-74-5-6-42-8-5-5" />
    <path
       style="opacity:1;fill:none;fill-opacity:0.997727;stroke:#000000;stroke-width:0.1;stroke-dasharray:none;stroke-dashoffset:0;stroke-opacity:1"
       d="m 197.99218,37.608472 c 0.25864,-1.673517 0.51727,-3.347031 0.77591,-5.020548"
       id="path18"
       transform="matrix(0.15958813,0,0,0.20755491,168.42512,35.911759)" />
    <path
       style="opacity:1;fill:none;fill-opacity:0.997727;stroke:#000000;stroke-width:0.1;stroke-dasharray:none;stroke-dashoffset:0;stroke-opacity:1"
       d="m 198.76809,32.587924 c 0.83676,1.683695 1.67351,3.367394 2.51027,5.051095"
       id="path19"
       transform="matrix(0.15958813,0,0,0.20755491,168.42512,35.911759)" />
    <path
       style="opacity:1;fill:none;fill-opacity:0.997727;stroke:#000000;stroke-width:0.1;stroke-dasharray:none;stroke-dashoffset:0;stroke-opacity:1"
       d="m 197.99218,37.608472 c 1.09539,0.01018 2.19078,0.02037 3.28618,0.03055"
       id="path20"
       transform="matrix(0.15958813,0,0,0.20755491,168.42512,35.911759)" />
    <path
       style="fill:none;fill-opacity:0.997727;stroke:#000000;stroke-width:0.1;stroke-dasharray:none;stroke-dashoffset:0;stroke-opacity:1"
       d="m 197.99218,37.608472 c 0.25864,-1.673517 0.51727,-3.347031 0.77591,-5.020548"
       id="path18-7"
       transform="matrix(0.15958813,0,0,0.20755491,177.02915,35.911759)" />
    <path
       style="fill:none;fill-opacity:0.997727;stroke:#000000;stroke-width:0.1;stroke-dasharray:none;stroke-dashoffset:0;stroke-opacity:1"
       d="m 198.76809,32.587924 c 0.83676,1.683695 1.67351,3.367394 2.51027,5.051095"
       id="path19-0"
       transform="matrix(0.15958813,0,0,0.20755491,177.02915,35.911759)" />
    <path
       style="fill:none;fill-opacity:0.997727;stroke:#000000;stroke-width:0.1;stroke-dasharray:none;stroke-dashoffset:0;stroke-opacity:1"
       d="m 197.99218,37.608472 c 1.09539,0.01018 2.19078,0.02037 3.28618,0.03055"
       id="path20-1"
       transform="matrix(0.15958813,0,0,0.20755491,177.02915,35.911759)" />
    <path
       style="fill:none;fill-opacity:0.997727;stroke:#000000;stroke-width:0.1;stroke-dasharray:none;stroke-dashoffset:0;stroke-opacity:1"
       d="m 197.99218,37.608472 c 0.25864,-1.673517 0.51727,-3.347031 0.77591,-5.020548"
       id="path18-77"
       transform="matrix(0.15958813,0,0,0.20755491,186.15762,35.911759)" />
    <path
       style="fill:none;fill-opacity:0.997727;stroke:#000000;stroke-width:0.1;stroke-dasharray:none;stroke-dashoffset:0;stroke-opacity:1"
       d="m 198.76809,32.587924 c 0.83676,1.683695 1.67351,3.367394 2.51027,5.051095"
       id="path19-2"
       transform="matrix(0.15958813,0,0,0.20755491,186.15762,35.911759)" />
    <path
       style="fill:none;fill-opacity:0.997727;stroke:#000000;stroke-width:0.1;stroke-dasharray:none;stroke-dashoffset:0;stroke-opacity:1"
       d="m 197.99218,37.608472 c 1.09539,0.01018 2.19078,0.02037 3.28618,0.03055"
       id="path20-0"
       transform="matrix(0.15958813,0,0,0.20755491,186.15762,35.911759)" />
    <path
       style="fill:none;fill-opacity:0.997727;stroke:#000000;stroke-width:0.1;stroke-dasharray:none;stroke-dashoffset:0;stroke-opacity:1"
       d="m 197.99218,37.608472 c 0.25864,-1.673517 0.51727,-3.347031 0.77591,-5.020548"
       id="path18-9"
       transform="matrix(0.15958813,0,0,0.20755491,194.37071,35.914929)" />
    <path
       style="fill:none;fill-opacity:0.997727;stroke:#000000;stroke-width:0.1;stroke-dasharray:none;stroke-dashoffset:0;stroke-opacity:1"
       d="m 198.76809,32.587924 c 0.83676,1.683695 1.67351,3.367394 2.51027,5.051095"
       id="path19-6"
       transform="matrix(0.15958813,0,0,0.20755491,194.37071,35.914929)" />
    <path
       style="fill:none;fill-opacity:0.997727;stroke:#000000;stroke-width:0.1;stroke-dasharray:none;stroke-dashoffset:0;stroke-opacity:1"
       d="m 197.99218,37.608472 c 1.09539,0.01018 2.19078,0.02037 3.28618,0.03055"
       id="path20-02"
       transform="matrix(0.15958813,0,0,0.20755491,194.37071,35.914929)" />
    <path
       style="fill:none;fill-opacity:0.997727;stroke:#000000;stroke-width:0.1;stroke-dasharray:none;stroke-dashoffset:0;stroke-opacity:1"
       d="m 197.99218,37.608472 c 0.25864,-1.673517 0.51727,-3.347031 0.77591,-5.020548"
       id="path18-1"
       transform="matrix(-0.15929592,0.009653,-0.01255437,-0.20717487,236.61225,47.498572)" />
    <path
       style="fill:none;fill-opacity:0.997727;stroke:#000000;stroke-width:0.1;stroke-dasharray:none;stroke-dashoffset:0;stroke-opacity:1"
       d="m 198.76809,32.587924 c 0.83676,1.683695 1.67351,3.367394 2.51027,5.051095"
       id="path19-1"
       transform="matrix(-0.15929592,0.009653,-0.01255437,-0.20717487,236.61225,47.498572)" />
    <path
       style="fill:none;fill-opacity:0.997727;stroke:#000000;stroke-width:0.1;stroke-dasharray:none;stroke-dashoffset:0;stroke-opacity:1"
       d="m 197.99218,37.608472 c 1.09539,0.01018 2.19078,0.02037 3.28618,0.03055"
       id="path20-5"
       transform="matrix(-0.15929592,0.009653,-0.01255437,-0.20717487,236.61225,47.498572)" />
    <path
       style="fill:none;fill-opacity:0.997727;stroke:#000000;stroke-width:0.1;stroke-dasharray:none;stroke-dashoffset:0;stroke-opacity:1"
       d="m 197.99218,37.608472 c 0.25864,-1.673517 0.51727,-3.347031 0.77591,-5.020548"
       id="path18-1-9"
       transform="matrix(-0.15929592,0.009653,-0.01255437,-0.20717487,245.80098,47.498572)" />
    <path
       style="fill:none;fill-opacity:0.997727;stroke:#000000;stroke-width:0.1;stroke-dasharray:none;stroke-dashoffset:0;stroke-opacity:1"
       d="m 198.76809,32.587924 c 0.83676,1.683695 1.67351,3.367394 2.51027,5.051095"
       id="path19-1-6"
       transform="matrix(-0.15929592,0.009653,-0.01255437,-0.20717487,245.80098,47.498572)" />
    <path
       style="fill:none;fill-opacity:0.997727;stroke:#000000;stroke-width:0.1;stroke-dasharray:none;stroke-dashoffset:0;stroke-opacity:1"
       d="m 197.99218,37.608472 c 1.09539,0.01018 2.19078,0.02037 3.28618,0.03055"
       id="path20-5-3"
       transform="matrix(-0.15929592,0.009653,-0.01255437,-0.20717487,245.80098,47.498572)" />
    <path
       style="fill:none;fill-opacity:0.997727;stroke:#000000;stroke-width:0.1;stroke-dasharray:none;stroke-dashoffset:0;stroke-opacity:1"
       d="m 197.99218,37.608472 c 0.25864,-1.673517 0.51727,-3.347031 0.77591,-5.020548"
       id="path18-1-3"
       transform="matrix(-0.15929592,0.009653,-0.01255437,-0.20717487,254.59047,47.485876)" />
    <path
       style="fill:none;fill-opacity:0.997727;stroke:#000000;stroke-width:0.1;stroke-dasharray:none;stroke-dashoffset:0;stroke-opacity:1"
       d="m 198.76809,32.587924 c 0.83676,1.683695 1.67351,3.367394 2.51027,5.051095"
       id="path19-1-3"
       transform="matrix(-0.15929592,0.009653,-0.01255437,-0.20717487,254.59047,47.485876)" />
    <path
       style="fill:none;fill-opacity:0.997727;stroke:#000000;stroke-width:0.1;stroke-dasharray:none;stroke-dashoffset:0;stroke-opacity:1"
       d="m 197.99218,37.608472 c 1.09539,0.01018 2.19078,0.02037 3.28618,0.03055"
       id="path20-5-9"
       transform="matrix(-0.15929592,0.009653,-0.01255437,-0.20717487,254.59047,47.485876)" />
    <path
       style="fill:none;fill-opacity:0.997727;stroke:#000000;stroke-width:0.1;stroke-dasharray:none;stroke-dashoffset:0;stroke-opacity:1"
       d="m 197.99218,37.608472 c 0.25864,-1.673517 0.51727,-3.347031 0.77591,-5.020548"
       id="path18-1-2"
       transform="matrix(-0.15929592,0.009653,-0.01255437,-0.20717487,261.33905,47.485876)" />
    <path
       style="fill:none;fill-opacity:0.997727;stroke:#000000;stroke-width:0.1;stroke-dasharray:none;stroke-dashoffset:0;stroke-opacity:1"
       d="m 198.76809,32.587924 c 0.83676,1.683695 1.67351,3.367394 2.51027,5.051095"
       id="path19-1-2"
       transform="matrix(-0.15929592,0.009653,-0.01255437,-0.20717487,261.33905,47.485876)" />
    <path
       style="fill:none;fill-opacity:0.997727;stroke:#000000;stroke-width:0.1;stroke-dasharray:none;stroke-dashoffset:0;stroke-opacity:1"
       d="m 197.99218,37.608472 c 1.09539,0.01018 2.19078,0.02037 3.28618,0.03055"
       id="path20-5-6"
       transform="matrix(-0.15929592,0.009653,-0.01255437,-0.20717487,261.33905,47.485876)" />
    <path
       style="fill:none;fill-opacity:0.997727;stroke:#000000;stroke-width:0.1;stroke-dasharray:none;stroke-dashoffset:0;stroke-opacity:1"
       d="m 197.99218,37.608472 c 0.25864,-1.673517 0.51727,-3.347031 0.77591,-5.020548"
       id="path18-1-1"
       transform="matrix(-0.02258599,0.09081826,-0.08619028,-0.01779518,218.6417,25.678024)" />
    <path
       style="fill:none;fill-opacity:0.997727;stroke:#000000;stroke-width:0.1;stroke-dasharray:none;stroke-dashoffset:0;stroke-opacity:1"
       d="m 198.76809,32.587924 c 0.83676,1.683695 1.67351,3.367394 2.51027,5.051095"
       id="path19-1-4"
       transform="matrix(-0.02258599,0.09081826,-0.08619028,-0.01779518,218.6417,25.678024)" />
    <path
       style="fill:none;fill-opacity:0.997727;stroke:#000000;stroke-width:0.1;stroke-dasharray:none;stroke-dashoffset:0;stroke-opacity:1"
       d="m 197.99218,37.608472 c 1.09539,0.01018 2.19078,0.02037 3.28618,0.03055"
       id="path20-5-8"
       transform="matrix(-0.02258599,0.09081826,-0.08619028,-0.01779518,218.6417,25.678024)" />
    <path
       style="fill:none;fill-opacity:0.997727;stroke:#000000;stroke-width:0.1;stroke-dasharray:none;stroke-dashoffset:0;stroke-opacity:1"
       d="m 197.99218,37.608472 c 0.25864,-1.673517 0.51727,-3.347031 0.77591,-5.020548"
       id="path18-1-1-9"
       transform="matrix(-0.02258599,0.09081826,-0.08619028,-0.01779518,223.86578,24.527651)" />
    <path
       style="fill:none;fill-opacity:0.997727;stroke:#000000;stroke-width:0.1;stroke-dasharray:none;stroke-dashoffset:0;stroke-opacity:1"
       d="m 198.76809,32.587924 c 0.83676,1.683695 1.67351,3.367394 2.51027,5.051095"
       id="path19-1-4-1"
       transform="matrix(-0.02258599,0.09081826,-0.08619028,-0.01779518,223.86578,24.527651)" />
    <path
       style="fill:none;fill-opacity:0.997727;stroke:#000000;stroke-width:0.1;stroke-dasharray:none;stroke-dashoffset:0;stroke-opacity:1"
       d="m 197.99218,37.608472 c 1.09539,0.01018 2.19078,0.02037 3.28618,0.03055"
       id="path20-5-8-0"
       transform="matrix(-0.02258599,0.09081826,-0.08619028,-0.01779518,223.86578,24.527651)" />
    <path
       style="fill:none;fill-opacity:0.997727;stroke:#000000;stroke-width:0.1;stroke-dasharray:none;stroke-dashoffset:0;stroke-opacity:1"
       d="m 197.99218,37.608472 c 0.25864,-1.673517 0.51727,-3.347031 0.77591,-5.020548"
       id="path18-1-1-9-8"
       transform="matrix(-0.02258599,0.09081826,-0.08619028,-0.01779518,231.97139,26.181426)" />
    <path
       style="fill:none;fill-opacity:0.997727;stroke:#000000;stroke-width:0.1;stroke-dasharray:none;stroke-dashoffset:0;stroke-opacity:1"
       d="m 198.76809,32.587924 c 0.83676,1.683695 1.67351,3.367394 2.51027,5.051095"
       id="path19-1-4-1-2"
       transform="matrix(-0.02258599,0.09081826,-0.08619028,-0.01779518,231.97139,26.181426)" />
    <path
       style="fill:none;fill-opacity:0.997727;stroke:#000000;stroke-width:0.1;stroke-dasharray:none;stroke-dashoffset:0;stroke-opacity:1"
       d="m 197.99218,37.608472 c 1.09539,0.01018 2.19078,0.02037 3.28618,0.03055"
       id="path20-5-8-0-4"
       transform="matrix(-0.02258599,0.09081826,-0.08619028,-0.01779518,231.97139,26.181426)" />
    <path
       style="fill:none;fill-opacity:0.997727;stroke:#000000;stroke-width:0.1;stroke-dasharray:none;stroke-dashoffset:0;stroke-opacity:1"
       d="m 197.99218,37.608472 c 0.25864,-1.673517 0.51727,-3.347031 0.77591,-5.020548"
       id="path18-1-1-9-8-0"
       transform="matrix(-0.02258599,0.09081826,-0.08619028,-0.01779518,209.11314,24.444962)" />
    <path
       style="fill:none;fill-opacity:0.997727;stroke:#000000;stroke-width:0.1;stroke-dasharray:none;stroke-dashoffset:0;stroke-opacity:1"
       d="m 198.76809,32.587924 c 0.83676,1.683695 1.67351,3.367394 2.51027,5.051095"
       id="path19-1-4-1-2-7"
       transform="matrix(-0.02258599,0.09081826,-0.08619028,-0.01779518,209.11314,24.444962)" />
    <path
       style="fill:none;fill-opacity:0.997727;stroke:#000000;stroke-width:0.1;stroke-dasharray:none;stroke-dashoffset:0;stroke-opacity:1"
       d="m 197.99218,37.608472 c 1.09539,0.01018 2.19078,0.02037 3.28618,0.03055"
       id="path20-5-8-0-4-3"
       transform="matrix(-0.02258599,0.09081826,-0.08619028,-0.01779518,209.11314,24.444962)" />
    <path
       style="fill:none;fill-opacity:0.997727;stroke:#000000;stroke-width:0.1;stroke-dasharray:none;stroke-dashoffset:0;stroke-opacity:1"
       d="m 197.99218,37.608472 c 0.25864,-1.673517 0.51727,-3.347031 0.77591,-5.020548"
       id="path18-1-1-9-8-0-7"
       transform="matrix(-0.0135547,0.04641728,-0.05172601,-0.00909513,207.54686,34.043237)" />
    <path
       style="fill:none;fill-opacity:0.997727;stroke:#000000;stroke-width:0.1;stroke-dasharray:none;stroke-dashoffset:0;stroke-opacity:1"
       d="m 198.76809,32.587924 c 0.83676,1.683695 1.67351,3.367394 2.51027,5.051095"
       id="path19-1-4-1-2-7-3"
       transform="matrix(-0.0135547,0.04641728,-0.05172601,-0.00909513,207.54686,34.043237)" />
    <path
       style="fill:none;fill-opacity:0.997727;stroke:#000000;stroke-width:0.1;stroke-dasharray:none;stroke-dashoffset:0;stroke-opacity:1"
       d="m 197.99218,37.608472 c 1.09539,0.01018 2.19078,0.02037 3.28618,0.03055"
       id="path20-5-8-0-4-3-8"
       transform="matrix(-0.0135547,0.04641728,-0.05172601,-0.00909513,207.54686,34.043237)" />
    <path
       style="fill:none;fill-opacity:0.997727;stroke:#000000;stroke-width:0.1;stroke-dasharray:none;stroke-dashoffset:0;stroke-opacity:1"
       d="m 197.99218,37.608472 c 0.25864,-1.673517 0.51727,-3.347031 0.77591,-5.020548"
       id="path18-1-1-9-8-0-7-0"
       transform="matrix(-0.0135547,0.04641728,-0.05172601,-0.00909513,208.67151,34.545686)" />
    <path
       style="fill:none;fill-opacity:0.997727;stroke:#000000;stroke-width:0.1;stroke-dasharray:none;stroke-dashoffset:0;stroke-opacity:1"
       d="m 198.76809,32.587924 c 0.83676,1.683695 1.67351,3.367394 2.51027,5.051095"
       id="path19-1-4-1-2-7-3-5"
       transform="matrix(-0.0135547,0.04641728,-0.05172601,-0.00909513,208.67151,34.545686)" />
    <path
       style="fill:none;fill-opacity:0.997727;stroke:#000000;stroke-width:0.1;stroke-dasharray:none;stroke-dashoffset:0;stroke-opacity:1"
       d="m 197.99218,37.608472 c 1.09539,0.01018 2.19078,0.02037 3.28618,0.03055"
       id="path20-5-8-0-4-3-8-3"
       transform="matrix(-0.0135547,0.04641728,-0.05172601,-0.00909513,208.67151,34.545686)" />
    <path
       style="fill:none;fill-opacity:0.997727;stroke:#000000;stroke-width:0.1;stroke-dasharray:none;stroke-dashoffset:0;stroke-opacity:1"
       d="m 197.99218,37.608472 c 0.25864,-1.673517 0.51727,-3.347031 0.77591,-5.020548"
       id="path18-1-1-9-8-0-7-1"
       transform="matrix(0.02082046,0.04364404,-0.04463124,0.0276831,203.24564,33.36361)" />
    <path
       style="fill:none;fill-opacity:0.997727;stroke:#000000;stroke-width:0.1;stroke-dasharray:none;stroke-dashoffset:0;stroke-opacity:1"
       d="m 198.76809,32.587924 c 0.83676,1.683695 1.67351,3.367394 2.51027,5.051095"
       id="path19-1-4-1-2-7-3-9"
       transform="matrix(0.02082046,0.04364404,-0.04463124,0.0276831,203.24564,33.36361)" />
    <path
       style="fill:none;fill-opacity:0.997727;stroke:#000000;stroke-width:0.1;stroke-dasharray:none;stroke-dashoffset:0;stroke-opacity:1"
       d="m 197.99218,37.608472 c 1.09539,0.01018 2.19078,0.02037 3.28618,0.03055"
       id="path20-5-8-0-4-3-8-34"
       transform="matrix(0.02082046,0.04364404,-0.04463124,0.0276831,203.24564,33.36361)" />
    <path
       style="fill:none;fill-opacity:0.997727;stroke:#000000;stroke-width:0.1;stroke-dasharray:none;stroke-dashoffset:0;stroke-opacity:1"
       d="m 197.99218,37.608472 c 0.25864,-1.673517 0.51727,-3.347031 0.77591,-5.020548"
       id="path18-1-1-9-8-0-7-4"
       transform="matrix(0.02082046,0.04364404,-0.04463124,0.0276831,204.11358,33.761271)" />
    <path
       style="fill:none;fill-opacity:0.997727;stroke:#000000;stroke-width:0.1;stroke-dasharray:none;stroke-dashoffset:0;stroke-opacity:1"
       d="m 198.76809,32.587924 c 0.83676,1.683695 1.67351,3.367394 2.51027,5.051095"
       id="path19-1-4-1-2-7-3-2"
       transform="matrix(0.02082046,0.04364404,-0.04463124,0.0276831,204.11358,33.761271)" />
    <path
       style="fill:none;fill-opacity:0.997727;stroke:#000000;stroke-width:0.1;stroke-dasharray:none;stroke-dashoffset:0;stroke-opacity:1"
       d="m 197.99218,37.608472 c 1.09539,0.01018 2.19078,0.02037 3.28618,0.03055"
       id="path20-5-8-0-4-3-8-5"
       transform="matrix(0.02082046,0.04364404,-0.04463124,0.0276831,204.11358,33.761271)" />
    <path
       style="fill:none;fill-opacity:0.997727;stroke:#000000;stroke-width:0.1;stroke-dasharray:none;stroke-dashoffset:0;stroke-opacity:1"
       d="m 197.99218,37.608472 c 0.25864,-1.673517 0.51727,-3.347031 0.77591,-5.020548"
       id="path18-1-1-9-8-0-7-3"
       transform="matrix(0.02082046,0.04364404,-0.04463124,0.0276831,204.24775,32.222995)" />
    <path
       style="fill:none;fill-opacity:0.997727;stroke:#000000;stroke-width:0.1;stroke-dasharray:none;stroke-dashoffset:0;stroke-opacity:1"
       d="m 198.76809,32.587924 c 0.83676,1.683695 1.67351,3.367394 2.51027,5.051095"
       id="path19-1-4-1-2-7-3-90"
       transform="matrix(0.02082046,0.04364404,-0.04463124,0.0276831,204.24775,32.222995)" />
    <path
       style="fill:none;fill-opacity:0.997727;stroke:#000000;stroke-width:0.1;stroke-dasharray:none;stroke-dashoffset:0;stroke-opacity:1"
       d="m 197.99218,37.608472 c 1.09539,0.01018 2.19078,0.02037 3.28618,0.03055"
       id="path20-5-8-0-4-3-8-38"
       transform="matrix(0.02082046,0.04364404,-0.04463124,0.0276831,204.24775,32.222995)" />
    <path
       style="fill:none;fill-opacity:0.997727;stroke:#000000;stroke-width:0.1;stroke-dasharray:none;stroke-dashoffset:0;stroke-opacity:1"
       d="m 197.99218,37.608472 c 0.25864,-1.673517 0.51727,-3.347031 0.77591,-5.020548"
       id="path18-1-1-9-8-0-7-16"
       transform="matrix(0.02082046,0.04364404,-0.04463124,0.0276831,205.23812,32.712095)" />
    <path
       style="fill:none;fill-opacity:0.997727;stroke:#000000;stroke-width:0.1;stroke-dasharray:none;stroke-dashoffset:0;stroke-opacity:1"
       d="m 198.76809,32.587924 c 0.83676,1.683695 1.67351,3.367394 2.51027,5.051095"
       id="path19-1-4-1-2-7-3-1"
       transform="matrix(0.02082046,0.04364404,-0.04463124,0.0276831,205.23812,32.712095)" />
    <path
       style="fill:none;fill-opacity:0.997727;stroke:#000000;stroke-width:0.1;stroke-dasharray:none;stroke-dashoffset:0;stroke-opacity:1"
       d="m 197.99218,37.608472 c 1.09539,0.01018 2.19078,0.02037 3.28618,0.03055"
       id="path20-5-8-0-4-3-8-4"
       transform="matrix(0.02082046,0.04364404,-0.04463124,0.0276831,205.23812,32.712095)" />
    <path
       style="fill:none;fill-opacity:0.997727;stroke:#000000;stroke-width:0.1;stroke-dasharray:none;stroke-dashoffset:0;stroke-opacity:1"
       d="m 197.99218,37.608472 c 0.25864,-1.673517 0.51727,-3.347031 0.77591,-5.020548"
       id="path18-1-1-9-8-0-7-1-8"
       transform="matrix(-0.0135547,0.04641728,-0.05172601,-0.00909513,214.53841,32.909239)" />
    <path
       style="fill:none;fill-opacity:0.997727;stroke:#000000;stroke-width:0.1;stroke-dasharray:none;stroke-dashoffset:0;stroke-opacity:1"
       d="m 198.76809,32.587924 c 0.83676,1.683695 1.67351,3.367394 2.51027,5.051095"
       id="path19-1-4-1-2-7-3-9-1"
       transform="matrix(-0.0135547,0.04641728,-0.05172601,-0.00909513,214.53841,32.909239)" />
    <path
       style="fill:none;fill-opacity:0.997727;stroke:#000000;stroke-width:0.1;stroke-dasharray:none;stroke-dashoffset:0;stroke-opacity:1"
       d="m 197.99218,37.608472 c 1.09539,0.01018 2.19078,0.02037 3.28618,0.03055"
       id="path20-5-8-0-4-3-8-34-2"
       transform="matrix(-0.0135547,0.04641728,-0.05172601,-0.00909513,214.53841,32.909239)" />
    <path
       style="fill:none;fill-opacity:0.997727;stroke:#000000;stroke-width:0.1;stroke-dasharray:none;stroke-dashoffset:0;stroke-opacity:1"
       d="m 197.99218,37.608472 c 0.25864,-1.673517 0.51727,-3.347031 0.77591,-5.020548"
       id="path18-1-1-9-8-0-7-4-8"
       transform="matrix(-0.0135547,0.04641728,-0.05172601,-0.00909513,214.92065,33.784075)" />
    <path
       style="fill:none;fill-opacity:0.997727;stroke:#000000;stroke-width:0.1;stroke-dasharray:none;stroke-dashoffset:0;stroke-opacity:1"
       d="m 198.76809,32.587924 c 0.83676,1.683695 1.67351,3.367394 2.51027,5.051095"
       id="path19-1-4-1-2-7-3-2-3"
       transform="matrix(-0.0135547,0.04641728,-0.05172601,-0.00909513,214.92065,33.784075)" />
    <path
       style="fill:none;fill-opacity:0.997727;stroke:#000000;stroke-width:0.1;stroke-dasharray:none;stroke-dashoffset:0;stroke-opacity:1"
       d="m 197.99218,37.608472 c 1.09539,0.01018 2.19078,0.02037 3.28618,0.03055"
       id="path20-5-8-0-4-3-8-5-9"
       transform="matrix(-0.0135547,0.04641728,-0.05172601,-0.00909513,214.92065,33.784075)" />
    <path
       style="fill:none;fill-opacity:0.997727;stroke:#000000;stroke-width:0.1;stroke-dasharray:none;stroke-dashoffset:0;stroke-opacity:1"
       d="m 197.99218,37.608472 c 0.25864,-1.673517 0.51727,-3.347031 0.77591,-5.020548"
       id="path18-1-1-9-8-0-7-3-9"
       transform="matrix(-0.0135547,0.04641728,-0.05172601,-0.00909513,216.04566,32.726413)" />
    <path
       style="fill:none;fill-opacity:0.997727;stroke:#000000;stroke-width:0.1;stroke-dasharray:none;stroke-dashoffset:0;stroke-opacity:1"
       d="m 198.76809,32.587924 c 0.83676,1.683695 1.67351,3.367394 2.51027,5.051095"
       id="path19-1-4-1-2-7-3-90-9"
       transform="matrix(-0.0135547,0.04641728,-0.05172601,-0.00909513,216.04566,32.726413)" />
    <path
       style="fill:none;fill-opacity:0.997727;stroke:#000000;stroke-width:0.1;stroke-dasharray:none;stroke-dashoffset:0;stroke-opacity:1"
       d="m 197.99218,37.608472 c 1.09539,0.01018 2.19078,0.02037 3.28618,0.03055"
       id="path20-5-8-0-4-3-8-38-6"
       transform="matrix(-0.0135547,0.04641728,-0.05172601,-0.00909513,216.04566,32.726413)" />
    <path
       style="fill:none;fill-opacity:0.997727;stroke:#000000;stroke-width:0.1;stroke-dasharray:none;stroke-dashoffset:0;stroke-opacity:1"
       d="m 197.99218,37.608472 c 0.25864,-1.673517 0.51727,-3.347031 0.77591,-5.020548"
       id="path18-1-1-9-8-0-7-16-1"
       transform="matrix(-0.0135547,0.04641728,-0.05172601,-0.00909513,216.45827,33.751009)" />
    <path
       style="fill:none;fill-opacity:0.997727;stroke:#000000;stroke-width:0.1;stroke-dasharray:none;stroke-dashoffset:0;stroke-opacity:1"
       d="m 198.76809,32.587924 c 0.83676,1.683695 1.67351,3.367394 2.51027,5.051095"
       id="path19-1-4-1-2-7-3-1-7"
       transform="matrix(-0.0135547,0.04641728,-0.05172601,-0.00909513,216.45827,33.751009)" />
    <path
       style="fill:none;fill-opacity:0.997727;stroke:#000000;stroke-width:0.1;stroke-dasharray:none;stroke-dashoffset:0;stroke-opacity:1"
       d="m 197.99218,37.608472 c 1.09539,0.01018 2.19078,0.02037 3.28618,0.03055"
       id="path20-5-8-0-4-3-8-4-3"
       transform="matrix(-0.0135547,0.04641728,-0.05172601,-0.00909513,216.45827,33.751009)" />
    <path
       style="fill:none;fill-opacity:0.997727;stroke:#000000;stroke-width:0.1;stroke-dasharray:none;stroke-dashoffset:0;stroke-opacity:1"
       d="m 197.99218,37.608472 c 0.25864,-1.673517 0.51727,-3.347031 0.77591,-5.020548"
       id="path18-1-1-9-8-0-7-1-8-3"
       transform="matrix(-0.0135547,0.04641728,-0.05172601,-0.00909513,223.82653,33.294343)" />
    <path
       style="fill:none;fill-opacity:0.997727;stroke:#000000;stroke-width:0.1;stroke-dasharray:none;stroke-dashoffset:0;stroke-opacity:1"
       d="m 198.76809,32.587924 c 0.83676,1.683695 1.67351,3.367394 2.51027,5.051095"
       id="path19-1-4-1-2-7-3-9-1-8"
       transform="matrix(-0.0135547,0.04641728,-0.05172601,-0.00909513,223.82653,33.294343)" />
    <path
       style="fill:none;fill-opacity:0.997727;stroke:#000000;stroke-width:0.1;stroke-dasharray:none;stroke-dashoffset:0;stroke-opacity:1"
       d="m 197.99218,37.608472 c 1.09539,0.01018 2.19078,0.02037 3.28618,0.03055"
       id="path20-5-8-0-4-3-8-34-2-0"
       transform="matrix(-0.0135547,0.04641728,-0.05172601,-0.00909513,223.82653,33.294343)" />
    <path
       style="fill:none;fill-opacity:0.997727;stroke:#000000;stroke-width:0.1;stroke-dasharray:none;stroke-dashoffset:0;stroke-opacity:1"
       d="m 197.99218,37.608472 c 0.25864,-1.673517 0.51727,-3.347031 0.77591,-5.020548"
       id="path18-1-1-9-8-0-7-4-8-0"
       transform="matrix(-0.0135547,0.04641728,-0.05172601,-0.00909513,224.20877,34.169179)" />
    <path
       style="fill:none;fill-opacity:0.997727;stroke:#000000;stroke-width:0.1;stroke-dasharray:none;stroke-dashoffset:0;stroke-opacity:1"
       d="m 198.76809,32.587924 c 0.83676,1.683695 1.67351,3.367394 2.51027,5.051095"
       id="path19-1-4-1-2-7-3-2-3-9"
       transform="matrix(-0.0135547,0.04641728,-0.05172601,-0.00909513,224.20877,34.169179)" />
    <path
       style="fill:none;fill-opacity:0.997727;stroke:#000000;stroke-width:0.1;stroke-dasharray:none;stroke-dashoffset:0;stroke-opacity:1"
       d="m 197.99218,37.608472 c 1.09539,0.01018 2.19078,0.02037 3.28618,0.03055"
       id="path20-5-8-0-4-3-8-5-9-4"
       transform="matrix(-0.0135547,0.04641728,-0.05172601,-0.00909513,224.20877,34.169179)" />
    <path
       style="fill:none;fill-opacity:0.997727;stroke:#000000;stroke-width:0.1;stroke-dasharray:none;stroke-dashoffset:0;stroke-opacity:1"
       d="m 197.99218,37.608472 c 0.25864,-1.673517 0.51727,-3.347031 0.77591,-5.020548"
       id="path18-1-1-9-8-0-7-3-9-2"
       transform="matrix(-0.0135547,0.04641728,-0.05172601,-0.00909513,225.33378,33.111517)" />
    <path
       style="fill:none;fill-opacity:0.997727;stroke:#000000;stroke-width:0.1;stroke-dasharray:none;stroke-dashoffset:0;stroke-opacity:1"
       d="m 198.76809,32.587924 c 0.83676,1.683695 1.67351,3.367394 2.51027,5.051095"
       id="path19-1-4-1-2-7-3-90-9-4"
       transform="matrix(-0.0135547,0.04641728,-0.05172601,-0.00909513,225.33378,33.111517)" />
    <path
       style="fill:none;fill-opacity:0.997727;stroke:#000000;stroke-width:0.1;stroke-dasharray:none;stroke-dashoffset:0;stroke-opacity:1"
       d="m 197.99218,37.608472 c 1.09539,0.01018 2.19078,0.02037 3.28618,0.03055"
       id="path20-5-8-0-4-3-8-38-6-0"
       transform="matrix(-0.0135547,0.04641728,-0.05172601,-0.00909513,225.33378,33.111517)" />
    <path
       style="fill:none;fill-opacity:0.997727;stroke:#000000;stroke-width:0.1;stroke-dasharray:none;stroke-dashoffset:0;stroke-opacity:1"
       d="m 197.99218,37.608472 c 0.25864,-1.673517 0.51727,-3.347031 0.77591,-5.020548"
       id="path18-1-1-9-8-0-7-16-1-2"
       transform="matrix(-0.0135547,0.04641728,-0.05172601,-0.00909513,225.74639,34.136113)" />
    <path
       style="fill:none;fill-opacity:0.997727;stroke:#000000;stroke-width:0.1;stroke-dasharray:none;stroke-dashoffset:0;stroke-opacity:1"
       d="m 198.76809,32.587924 c 0.83676,1.683695 1.67351,3.367394 2.51027,5.051095"
       id="path19-1-4-1-2-7-3-1-7-9"
       transform="matrix(-0.0135547,0.04641728,-0.05172601,-0.00909513,225.74639,34.136113)" />
    <path
       style="fill:none;fill-opacity:0.997727;stroke:#000000;stroke-width:0.1;stroke-dasharray:none;stroke-dashoffset:0;stroke-opacity:1"
       d="m 197.99218,37.608472 c 1.09539,0.01018 2.19078,0.02037 3.28618,0.03055"
       id="path20-5-8-0-4-3-8-4-3-7"
       transform="matrix(-0.0135547,0.04641728,-0.05172601,-0.00909513,225.74639,34.136113)" />
    <path
       style="fill:none;fill-opacity:0.997727;stroke:#000000;stroke-width:0.1;stroke-dasharray:none;stroke-dashoffset:0;stroke-opacity:1"
       d="m 197.99218,37.608472 c 0.25864,-1.673517 0.51727,-3.347031 0.77591,-5.020548"
       id="path18-1-1-9-8-0-7-1-8-3-9"
       transform="matrix(-0.0135547,0.04641728,-0.05172601,-0.00909513,228.04735,32.941305)" />
    <path
       style="fill:none;fill-opacity:0.997727;stroke:#000000;stroke-width:0.1;stroke-dasharray:none;stroke-dashoffset:0;stroke-opacity:1"
       d="m 198.76809,32.587924 c 0.83676,1.683695 1.67351,3.367394 2.51027,5.051095"
       id="path19-1-4-1-2-7-3-9-1-8-4"
       transform="matrix(-0.0135547,0.04641728,-0.05172601,-0.00909513,228.04735,32.941305)" />
    <path
       style="fill:none;fill-opacity:0.997727;stroke:#000000;stroke-width:0.1;stroke-dasharray:none;stroke-dashoffset:0;stroke-opacity:1"
       d="m 197.99218,37.608472 c 1.09539,0.01018 2.19078,0.02037 3.28618,0.03055"
       id="path20-5-8-0-4-3-8-34-2-0-5"
       transform="matrix(-0.0135547,0.04641728,-0.05172601,-0.00909513,228.04735,32.941305)" />
    <path
       style="fill:none;fill-opacity:0.997727;stroke:#000000;stroke-width:0.1;stroke-dasharray:none;stroke-dashoffset:0;stroke-opacity:1"
       d="m 197.99218,37.608472 c 0.25864,-1.673517 0.51727,-3.347031 0.77591,-5.020548"
       id="path18-1-1-9-8-0-7-4-8-0-0"
       transform="matrix(-0.0135547,0.04641728,-0.05172601,-0.00909513,228.42959,33.816141)" />
    <path
       style="fill:none;fill-opacity:0.997727;stroke:#000000;stroke-width:0.1;stroke-dasharray:none;stroke-dashoffset:0;stroke-opacity:1"
       d="m 198.76809,32.587924 c 0.83676,1.683695 1.67351,3.367394 2.51027,5.051095"
       id="path19-1-4-1-2-7-3-2-3-9-6"
       transform="matrix(-0.0135547,0.04641728,-0.05172601,-0.00909513,228.42959,33.816141)" />
    <path
       style="fill:none;fill-opacity:0.997727;stroke:#000000;stroke-width:0.1;stroke-dasharray:none;stroke-dashoffset:0;stroke-opacity:1"
       d="m 197.99218,37.608472 c 1.09539,0.01018 2.19078,0.02037 3.28618,0.03055"
       id="path20-5-8-0-4-3-8-5-9-4-9"
       transform="matrix(-0.0135547,0.04641728,-0.05172601,-0.00909513,228.42959,33.816141)" />
    <path
       style="fill:none;fill-opacity:0.997727;stroke:#000000;stroke-width:0.1;stroke-dasharray:none;stroke-dashoffset:0;stroke-opacity:1"
       d="m 197.99218,37.608472 c 0.25864,-1.673517 0.51727,-3.347031 0.77591,-5.020548"
       id="path18-1-1-9-8-0-7-3-9-2-0"
       transform="matrix(-0.0135547,0.04641728,-0.05172601,-0.00909513,229.5546,32.758479)" />
    <path
       style="fill:none;fill-opacity:0.997727;stroke:#000000;stroke-width:0.1;stroke-dasharray:none;stroke-dashoffset:0;stroke-opacity:1"
       d="m 198.76809,32.587924 c 0.83676,1.683695 1.67351,3.367394 2.51027,5.051095"
       id="path19-1-4-1-2-7-3-90-9-4-8"
       transform="matrix(-0.0135547,0.04641728,-0.05172601,-0.00909513,229.5546,32.758479)" />
    <path
       style="fill:none;fill-opacity:0.997727;stroke:#000000;stroke-width:0.1;stroke-dasharray:none;stroke-dashoffset:0;stroke-opacity:1"
       d="m 197.99218,37.608472 c 1.09539,0.01018 2.19078,0.02037 3.28618,0.03055"
       id="path20-5-8-0-4-3-8-38-6-0-8"
       transform="matrix(-0.0135547,0.04641728,-0.05172601,-0.00909513,229.5546,32.758479)" />
    <path
       style="fill:none;fill-opacity:0.997727;stroke:#000000;stroke-width:0.1;stroke-dasharray:none;stroke-dashoffset:0;stroke-opacity:1"
       d="m 197.99218,37.608472 c 0.25864,-1.673517 0.51727,-3.347031 0.77591,-5.020548"
       id="path18-1-1-9-8-0-7-16-1-2-2"
       transform="matrix(-0.0135547,0.04641728,-0.05172601,-0.00909513,229.96721,33.783075)" />
    <path
       style="fill:none;fill-opacity:0.997727;stroke:#000000;stroke-width:0.1;stroke-dasharray:none;stroke-dashoffset:0;stroke-opacity:1"
       d="m 198.76809,32.587924 c 0.83676,1.683695 1.67351,3.367394 2.51027,5.051095"
       id="path19-1-4-1-2-7-3-1-7-9-8"
       transform="matrix(-0.0135547,0.04641728,-0.05172601,-0.00909513,229.96721,33.783075)" />
    <path
       style="fill:none;fill-opacity:0.997727;stroke:#000000;stroke-width:0.1;stroke-dasharray:none;stroke-dashoffset:0;stroke-opacity:1"
       d="m 197.99218,37.608472 c 1.09539,0.01018 2.19078,0.02037 3.28618,0.03055"
       id="path20-5-8-0-4-3-8-4-3-7-0"
       transform="matrix(-0.0135547,0.04641728,-0.05172601,-0.00909513,229.96721,33.783075)" />
    <path
       style="fill:none;fill-opacity:0.997727;stroke:#000000;stroke-width:0.1;stroke-dasharray:none;stroke-dashoffset:0;stroke-opacity:1"
       d="m 197.99218,37.608472 c 0.25864,-1.673517 0.51727,-3.347031 0.77591,-5.020548"
       id="path18-1-1-9-8-0-7-1-8-3-9-8"
       transform="matrix(-0.0135547,0.04641728,-0.05172601,-0.00909513,231.50483,33.514024)" />
    <path
       style="fill:none;fill-opacity:0.997727;stroke:#000000;stroke-width:0.1;stroke-dasharray:none;stroke-dashoffset:0;stroke-opacity:1"
       d="m 198.76809,32.587924 c 0.83676,1.683695 1.67351,3.367394 2.51027,5.051095"
       id="path19-1-4-1-2-7-3-9-1-8-4-1"
       transform="matrix(-0.0135547,0.04641728,-0.05172601,-0.00909513,231.50483,33.514024)" />
    <path
       style="fill:none;fill-opacity:0.997727;stroke:#000000;stroke-width:0.1;stroke-dasharray:none;stroke-dashoffset:0;stroke-opacity:1"
       d="m 197.99218,37.608472 c 1.09539,0.01018 2.19078,0.02037 3.28618,0.03055"
       id="path20-5-8-0-4-3-8-34-2-0-5-4"
       transform="matrix(-0.0135547,0.04641728,-0.05172601,-0.00909513,231.50483,33.514024)" />
    <path
       style="fill:none;fill-opacity:0.997727;stroke:#000000;stroke-width:0.1;stroke-dasharray:none;stroke-dashoffset:0;stroke-opacity:1"
       d="m 197.99218,37.608472 c 0.25864,-1.673517 0.51727,-3.347031 0.77591,-5.020548"
       id="path18-1-1-9-8-0-7-4-8-0-0-9"
       transform="matrix(-0.0135547,0.04641728,-0.05172601,-0.00909513,231.88707,34.38886)" />
    <path
       style="fill:none;fill-opacity:0.997727;stroke:#000000;stroke-width:0.1;stroke-dasharray:none;stroke-dashoffset:0;stroke-opacity:1"
       d="m 198.76809,32.587924 c 0.83676,1.683695 1.67351,3.367394 2.51027,5.051095"
       id="path19-1-4-1-2-7-3-2-3-9-6-5"
       transform="matrix(-0.0135547,0.04641728,-0.05172601,-0.00909513,231.88707,34.38886)" />
    <path
       style="fill:none;fill-opacity:0.997727;stroke:#000000;stroke-width:0.1;stroke-dasharray:none;stroke-dashoffset:0;stroke-opacity:1"
       d="m 197.99218,37.608472 c 1.09539,0.01018 2.19078,0.02037 3.28618,0.03055"
       id="path20-5-8-0-4-3-8-5-9-4-9-9"
       transform="matrix(-0.0135547,0.04641728,-0.05172601,-0.00909513,231.88707,34.38886)" />
    <path
       style="fill:none;fill-opacity:0.997727;stroke:#000000;stroke-width:0.1;stroke-dasharray:none;stroke-dashoffset:0;stroke-opacity:1"
       d="m 197.99218,37.608472 c 0.25864,-1.673517 0.51727,-3.347031 0.77591,-5.020548"
       id="path18-1-1-9-8-0-7-3-9-2-0-0"
       transform="matrix(-0.0135547,0.04641728,-0.05172601,-0.00909513,233.01208,33.331198)" />
    <path
       style="fill:none;fill-opacity:0.997727;stroke:#000000;stroke-width:0.1;stroke-dasharray:none;stroke-dashoffset:0;stroke-opacity:1"
       d="m 198.76809,32.587924 c 0.83676,1.683695 1.67351,3.367394 2.51027,5.051095"
       id="path19-1-4-1-2-7-3-90-9-4-8-2"
       transform="matrix(-0.0135547,0.04641728,-0.05172601,-0.00909513,233.01208,33.331198)" />
    <path
       style="fill:none;fill-opacity:0.997727;stroke:#000000;stroke-width:0.1;stroke-dasharray:none;stroke-dashoffset:0;stroke-opacity:1"
       d="m 197.99218,37.608472 c 1.09539,0.01018 2.19078,0.02037 3.28618,0.03055"
       id="path20-5-8-0-4-3-8-38-6-0-8-3"
       transform="matrix(-0.0135547,0.04641728,-0.05172601,-0.00909513,233.01208,33.331198)" />
    <path
       style="fill:none;fill-opacity:0.997727;stroke:#000000;stroke-width:0.1;stroke-dasharray:none;stroke-dashoffset:0;stroke-opacity:1"
       d="m 197.99218,37.608472 c 0.25864,-1.673517 0.51727,-3.347031 0.77591,-5.020548"
       id="path18-1-1-9-8-0-7-16-1-2-2-5"
       transform="matrix(-0.0135547,0.04641728,-0.05172601,-0.00909513,233.42469,34.355794)" />
    <path
       style="fill:none;fill-opacity:0.997727;stroke:#000000;stroke-width:0.1;stroke-dasharray:none;stroke-dashoffset:0;stroke-opacity:1"
       d="m 198.76809,32.587924 c 0.83676,1.683695 1.67351,3.367394 2.51027,5.051095"
       id="path19-1-4-1-2-7-3-1-7-9-8-9"
       transform="matrix(-0.0135547,0.04641728,-0.05172601,-0.00909513,233.42469,34.355794)" />
    <path
       style="fill:none;fill-opacity:0.997727;stroke:#000000;stroke-width:0.1;stroke-dasharray:none;stroke-dashoffset:0;stroke-opacity:1"
       d="m 197.99218,37.608472 c 1.09539,0.01018 2.19078,0.02037 3.28618,0.03055"
       id="path20-5-8-0-4-3-8-4-3-7-0-0"
       transform="matrix(-0.0135547,0.04641728,-0.05172601,-0.00909513,233.42469,34.355794)" />
    <path
       style="fill:none;fill-opacity:0.997727;stroke:#000000;stroke-width:0.1;stroke-dasharray:none;stroke-dashoffset:0;stroke-opacity:1"
       d="m 197.99218,37.608472 c 0.25864,-1.673517 0.51727,-3.347031 0.77591,-5.020548"
       id="path18-1-1-9-8-0-7-1-8-3-9-4"
       transform="matrix(0.03463456,-0.03374524,0.04056098,0.03336329,207.57598,49.495452)" />
    <path
       style="fill:none;fill-opacity:0.997727;stroke:#000000;stroke-width:0.1;stroke-dasharray:none;stroke-dashoffset:0;stroke-opacity:1"
       d="m 198.76809,32.587924 c 0.83676,1.683695 1.67351,3.367394 2.51027,5.051095"
       id="path19-1-4-1-2-7-3-9-1-8-4-9"
       transform="matrix(0.03463456,-0.03374524,0.04056098,0.03336329,207.57598,49.495452)" />
    <path
       style="fill:none;fill-opacity:0.997727;stroke:#000000;stroke-width:0.1;stroke-dasharray:none;stroke-dashoffset:0;stroke-opacity:1"
       d="m 197.99218,37.608472 c 1.09539,0.01018 2.19078,0.02037 3.28618,0.03055"
       id="path20-5-8-0-4-3-8-34-2-0-5-0"
       transform="matrix(0.03463456,-0.03374524,0.04056098,0.03336329,207.57598,49.495452)" />
    <path
       style="fill:none;fill-opacity:0.997727;stroke:#000000;stroke-width:0.1;stroke-dasharray:none;stroke-dashoffset:0;stroke-opacity:1"
       d="m 197.99218,37.608472 c 0.25864,-1.673517 0.51727,-3.347031 0.77591,-5.020548"
       id="path18-1-1-9-8-0-7-4-8-0-0-2"
       transform="matrix(0.03463456,-0.03374524,0.04056098,0.03336329,207.67353,48.545753)" />
    <path
       style="fill:none;fill-opacity:0.997727;stroke:#000000;stroke-width:0.1;stroke-dasharray:none;stroke-dashoffset:0;stroke-opacity:1"
       d="m 198.76809,32.587924 c 0.83676,1.683695 1.67351,3.367394 2.51027,5.051095"
       id="path19-1-4-1-2-7-3-2-3-9-6-0"
       transform="matrix(0.03463456,-0.03374524,0.04056098,0.03336329,207.67353,48.545753)" />
    <path
       style="fill:none;fill-opacity:0.997727;stroke:#000000;stroke-width:0.1;stroke-dasharray:none;stroke-dashoffset:0;stroke-opacity:1"
       d="m 197.99218,37.608472 c 1.09539,0.01018 2.19078,0.02037 3.28618,0.03055"
       id="path20-5-8-0-4-3-8-5-9-4-9-3"
       transform="matrix(0.03463456,-0.03374524,0.04056098,0.03336329,207.67353,48.545753)" />
    <path
       style="fill:none;fill-opacity:0.997727;stroke:#000000;stroke-width:0.1;stroke-dasharray:none;stroke-dashoffset:0;stroke-opacity:1"
       d="m 197.99218,37.608472 c 0.25864,-1.673517 0.51727,-3.347031 0.77591,-5.020548"
       id="path18-1-1-9-8-0-7-3-9-2-0-8"
       transform="matrix(0.03463456,-0.03374524,0.04056098,0.03336329,206.17377,48.913194)" />
    <path
       style="fill:none;fill-opacity:0.997727;stroke:#000000;stroke-width:0.1;stroke-dasharray:none;stroke-dashoffset:0;stroke-opacity:1"
       d="m 198.76809,32.587924 c 0.83676,1.683695 1.67351,3.367394 2.51027,5.051095"
       id="path19-1-4-1-2-7-3-90-9-4-8-21"
       transform="matrix(0.03463456,-0.03374524,0.04056098,0.03336329,206.17377,48.913194)" />
    <path
       style="fill:none;fill-opacity:0.997727;stroke:#000000;stroke-width:0.1;stroke-dasharray:none;stroke-dashoffset:0;stroke-opacity:1"
       d="m 197.99218,37.608472 c 1.09539,0.01018 2.19078,0.02037 3.28618,0.03055"
       id="path20-5-8-0-4-3-8-38-6-0-8-6"
       transform="matrix(0.03463456,-0.03374524,0.04056098,0.03336329,206.17377,48.913194)" />
    <path
       style="fill:none;fill-opacity:0.997727;stroke:#000000;stroke-width:0.1;stroke-dasharray:none;stroke-dashoffset:0;stroke-opacity:1"
       d="m 197.99218,37.608472 c 0.25864,-1.673517 0.51727,-3.347031 0.77591,-5.020548"
       id="path18-1-1-9-8-0-7-16-1-2-2-8"
       transform="matrix(0.03463456,-0.03374524,0.04056098,0.03336329,206.31854,47.818167)" />
    <path
       style="fill:none;fill-opacity:0.997727;stroke:#000000;stroke-width:0.1;stroke-dasharray:none;stroke-dashoffset:0;stroke-opacity:1"
       d="m 198.76809,32.587924 c 0.83676,1.683695 1.67351,3.367394 2.51027,5.051095"
       id="path19-1-4-1-2-7-3-1-7-9-8-3"
       transform="matrix(0.03463456,-0.03374524,0.04056098,0.03336329,206.31854,47.818167)" />
    <path
       style="fill:none;fill-opacity:0.997727;stroke:#000000;stroke-width:0.1;stroke-dasharray:none;stroke-dashoffset:0;stroke-opacity:1"
       d="m 197.99218,37.608472 c 1.09539,0.01018 2.19078,0.02037 3.28618,0.03055"
       id="path20-5-8-0-4-3-8-4-3-7-0-2"
       transform="matrix(0.03463456,-0.03374524,0.04056098,0.03336329,206.31854,47.818167)" />
  </g>
</svg>
